<mxfile host="app.diagrams.net" agent="Mozilla/5.0 (Windows NT 10.0; Win64; x64) AppleWebKit/537.36 (KHTML, like Gecko) Chrome/130.0.0.0 Safari/537.36" version="24.8.3">
  <diagram name="Page-1" id="EcvEvmiZ6SXH3thIGm7w">
    <mxGraphModel dx="2049" dy="1054" grid="1" gridSize="10" guides="1" tooltips="1" connect="1" arrows="1" fold="1" page="1" pageScale="1" pageWidth="850" pageHeight="1100" math="0" shadow="0">
      <root>
        <mxCell id="0" />
        <mxCell id="1" parent="0" />
        <mxCell id="rC166UHZ5wfG2yP7bwpj-57" value="" style="rounded=1;whiteSpace=wrap;html=1;" vertex="1" parent="1">
          <mxGeometry x="1210" y="801" width="560" height="280" as="geometry" />
        </mxCell>
        <mxCell id="rC166UHZ5wfG2yP7bwpj-18" value="" style="rounded=1;whiteSpace=wrap;html=1;" vertex="1" parent="1">
          <mxGeometry x="624" y="197" width="220" height="170" as="geometry" />
        </mxCell>
        <mxCell id="rC166UHZ5wfG2yP7bwpj-1" value="Actor" style="shape=umlActor;verticalLabelPosition=bottom;verticalAlign=top;html=1;outlineConnect=0;" vertex="1" parent="1">
          <mxGeometry x="30" y="300" width="30" height="60" as="geometry" />
        </mxCell>
        <mxCell id="rC166UHZ5wfG2yP7bwpj-3" value="" style="rounded=1;whiteSpace=wrap;html=1;" vertex="1" parent="1">
          <mxGeometry x="150" y="90" width="220" height="460" as="geometry" />
        </mxCell>
        <mxCell id="rC166UHZ5wfG2yP7bwpj-4" value="GET" style="rounded=0;whiteSpace=wrap;html=1;" vertex="1" parent="1">
          <mxGeometry x="1310" y="180" width="120" height="60" as="geometry" />
        </mxCell>
        <mxCell id="rC166UHZ5wfG2yP7bwpj-5" value="POST" style="rounded=0;whiteSpace=wrap;html=1;" vertex="1" parent="1">
          <mxGeometry x="200" y="250" width="120" height="60" as="geometry" />
        </mxCell>
        <mxCell id="rC166UHZ5wfG2yP7bwpj-6" value="PUT/PATCH" style="rounded=0;whiteSpace=wrap;html=1;" vertex="1" parent="1">
          <mxGeometry x="200" y="340" width="120" height="60" as="geometry" />
        </mxCell>
        <mxCell id="rC166UHZ5wfG2yP7bwpj-7" value="DELETE" style="rounded=0;whiteSpace=wrap;html=1;" vertex="1" parent="1">
          <mxGeometry x="200" y="430" width="120" height="60" as="geometry" />
        </mxCell>
        <mxCell id="rC166UHZ5wfG2yP7bwpj-8" value="" style="endArrow=classic;html=1;rounded=0;exitX=1;exitY=0.3333333333333333;exitDx=0;exitDy=0;exitPerimeter=0;entryX=0;entryY=0.5;entryDx=0;entryDy=0;" edge="1" parent="1" source="rC166UHZ5wfG2yP7bwpj-1" target="rC166UHZ5wfG2yP7bwpj-3">
          <mxGeometry width="50" height="50" relative="1" as="geometry">
            <mxPoint x="400" y="410" as="sourcePoint" />
            <mxPoint x="450" y="360" as="targetPoint" />
          </mxGeometry>
        </mxCell>
        <mxCell id="rC166UHZ5wfG2yP7bwpj-9" value="" style="rounded=1;whiteSpace=wrap;html=1;" vertex="1" parent="1">
          <mxGeometry x="1290" y="180" width="170" height="210" as="geometry" />
        </mxCell>
        <mxCell id="rC166UHZ5wfG2yP7bwpj-10" value="GET" style="rounded=0;whiteSpace=wrap;html=1;" vertex="1" parent="1">
          <mxGeometry x="200" y="160" width="120" height="60" as="geometry" />
        </mxCell>
        <mxCell id="rC166UHZ5wfG2yP7bwpj-11" value="controller A" style="rounded=0;whiteSpace=wrap;html=1;" vertex="1" parent="1">
          <mxGeometry x="1315" y="209" width="120" height="47" as="geometry" />
        </mxCell>
        <mxCell id="rC166UHZ5wfG2yP7bwpj-12" value="controller B" style="rounded=0;whiteSpace=wrap;html=1;" vertex="1" parent="1">
          <mxGeometry x="1315" y="272" width="120" height="45" as="geometry" />
        </mxCell>
        <mxCell id="rC166UHZ5wfG2yP7bwpj-13" value="controller c" style="rounded=0;whiteSpace=wrap;html=1;" vertex="1" parent="1">
          <mxGeometry x="1317" y="333" width="120" height="40" as="geometry" />
        </mxCell>
        <mxCell id="rC166UHZ5wfG2yP7bwpj-14" value="" style="endArrow=classic;html=1;rounded=0;exitX=0.5;exitY=0;exitDx=0;exitDy=0;edgeStyle=orthogonalEdgeStyle;entryX=0.483;entryY=0;entryDx=0;entryDy=0;entryPerimeter=0;" edge="1" parent="1" source="rC166UHZ5wfG2yP7bwpj-9" target="rC166UHZ5wfG2yP7bwpj-3">
          <mxGeometry width="50" height="50" relative="1" as="geometry">
            <mxPoint x="1090" y="190" as="sourcePoint" />
            <mxPoint x="245" y="80" as="targetPoint" />
            <Array as="points">
              <mxPoint x="1375" y="50" />
              <mxPoint x="256" y="50" />
            </Array>
          </mxGeometry>
        </mxCell>
        <mxCell id="rC166UHZ5wfG2yP7bwpj-24" value="Response" style="edgeLabel;html=1;align=center;verticalAlign=middle;resizable=0;points=[];fontStyle=1;spacingTop=-1;fontFamily=Helvetica;fontSize=23;" vertex="1" connectable="0" parent="rC166UHZ5wfG2yP7bwpj-14">
          <mxGeometry x="0.11" y="-2" relative="1" as="geometry">
            <mxPoint x="5" y="-18" as="offset" />
          </mxGeometry>
        </mxCell>
        <mxCell id="rC166UHZ5wfG2yP7bwpj-17" value="" style="rounded=0;whiteSpace=wrap;html=1;" vertex="1" parent="1">
          <mxGeometry x="650" y="237" width="120" height="60" as="geometry" />
        </mxCell>
        <mxCell id="rC166UHZ5wfG2yP7bwpj-19" value="" style="rounded=0;whiteSpace=wrap;html=1;" vertex="1" parent="1">
          <mxGeometry x="660" y="247" width="120" height="60" as="geometry" />
        </mxCell>
        <mxCell id="rC166UHZ5wfG2yP7bwpj-20" value="" style="rounded=0;whiteSpace=wrap;html=1;" vertex="1" parent="1">
          <mxGeometry x="670" y="257" width="120" height="60" as="geometry" />
        </mxCell>
        <mxCell id="rC166UHZ5wfG2yP7bwpj-21" value="" style="rounded=0;whiteSpace=wrap;html=1;" vertex="1" parent="1">
          <mxGeometry x="680" y="267" width="120" height="60" as="geometry" />
        </mxCell>
        <mxCell id="rC166UHZ5wfG2yP7bwpj-22" value="&lt;font style=&quot;font-size: 14px;&quot;&gt;filter 1 ...&lt;/font&gt;" style="rounded=0;whiteSpace=wrap;html=1;" vertex="1" parent="1">
          <mxGeometry x="690" y="277" width="120" height="60" as="geometry" />
        </mxCell>
        <mxCell id="rC166UHZ5wfG2yP7bwpj-23" value="" style="endArrow=classic;html=1;rounded=0;exitX=0.998;exitY=0.414;exitDx=0;exitDy=0;entryX=0;entryY=0.5;entryDx=0;entryDy=0;exitPerimeter=0;" edge="1" parent="1" source="rC166UHZ5wfG2yP7bwpj-3" target="rC166UHZ5wfG2yP7bwpj-18">
          <mxGeometry width="50" height="50" relative="1" as="geometry">
            <mxPoint x="580" y="410" as="sourcePoint" />
            <mxPoint x="630" y="360" as="targetPoint" />
          </mxGeometry>
        </mxCell>
        <mxCell id="rC166UHZ5wfG2yP7bwpj-25" value="Request" style="edgeLabel;html=1;align=center;verticalAlign=middle;resizable=0;points=[];fontSize=19;" vertex="1" connectable="0" parent="rC166UHZ5wfG2yP7bwpj-23">
          <mxGeometry x="-0.4268" y="-8" relative="1" as="geometry">
            <mxPoint x="64" y="7" as="offset" />
          </mxGeometry>
        </mxCell>
        <mxCell id="rC166UHZ5wfG2yP7bwpj-27" value="&lt;font style=&quot;font-size: 15px;&quot;&gt;OncePerRequestFilter&lt;br&gt;JwtAuthenticationFilter&lt;/font&gt;" style="rounded=1;whiteSpace=wrap;html=1;" vertex="1" parent="1">
          <mxGeometry x="930" y="240" width="180" height="80" as="geometry" />
        </mxCell>
        <mxCell id="rC166UHZ5wfG2yP7bwpj-28" value="" style="endArrow=classic;html=1;rounded=0;entryX=0;entryY=0.5;entryDx=0;entryDy=0;exitX=1;exitY=0.5;exitDx=0;exitDy=0;" edge="1" parent="1" source="rC166UHZ5wfG2yP7bwpj-18" target="rC166UHZ5wfG2yP7bwpj-27">
          <mxGeometry width="50" height="50" relative="1" as="geometry">
            <mxPoint x="580" y="400" as="sourcePoint" />
            <mxPoint x="630" y="350" as="targetPoint" />
          </mxGeometry>
        </mxCell>
        <mxCell id="rC166UHZ5wfG2yP7bwpj-29" value="" style="rhombus;whiteSpace=wrap;html=1;" vertex="1" parent="1">
          <mxGeometry x="979" y="400" width="80" height="80" as="geometry" />
        </mxCell>
        <mxCell id="rC166UHZ5wfG2yP7bwpj-30" value="&lt;font style=&quot;font-size: 17px;&quot;&gt;JWTService (Validate Token)&lt;/font&gt;" style="rounded=1;whiteSpace=wrap;html=1;" vertex="1" parent="1">
          <mxGeometry x="870" y="524" width="300" height="80" as="geometry" />
        </mxCell>
        <mxCell id="rC166UHZ5wfG2yP7bwpj-31" value="" style="endArrow=classic;html=1;rounded=0;entryX=0.5;entryY=0;entryDx=0;entryDy=0;exitX=0.5;exitY=1;exitDx=0;exitDy=0;" edge="1" parent="1" source="rC166UHZ5wfG2yP7bwpj-27" target="rC166UHZ5wfG2yP7bwpj-29">
          <mxGeometry width="50" height="50" relative="1" as="geometry">
            <mxPoint x="580" y="400" as="sourcePoint" />
            <mxPoint x="630" y="350" as="targetPoint" />
          </mxGeometry>
        </mxCell>
        <mxCell id="rC166UHZ5wfG2yP7bwpj-32" value="&lt;font style=&quot;font-size: 16px;&quot;&gt;Token exists&lt;/font&gt;" style="edgeLabel;html=1;align=center;verticalAlign=middle;resizable=0;points=[];" vertex="1" connectable="0" parent="rC166UHZ5wfG2yP7bwpj-31">
          <mxGeometry x="0.041" y="6" relative="1" as="geometry">
            <mxPoint as="offset" />
          </mxGeometry>
        </mxCell>
        <mxCell id="rC166UHZ5wfG2yP7bwpj-33" value="" style="endArrow=classic;html=1;rounded=0;entryX=0.5;entryY=0;entryDx=0;entryDy=0;exitX=0.5;exitY=1;exitDx=0;exitDy=0;" edge="1" parent="1" source="rC166UHZ5wfG2yP7bwpj-29" target="rC166UHZ5wfG2yP7bwpj-30">
          <mxGeometry width="50" height="50" relative="1" as="geometry">
            <mxPoint x="580" y="400" as="sourcePoint" />
            <mxPoint x="630" y="350" as="targetPoint" />
          </mxGeometry>
        </mxCell>
        <mxCell id="rC166UHZ5wfG2yP7bwpj-34" value="" style="rhombus;whiteSpace=wrap;html=1;" vertex="1" parent="1">
          <mxGeometry x="979" y="647" width="80" height="80" as="geometry" />
        </mxCell>
        <mxCell id="rC166UHZ5wfG2yP7bwpj-35" value="" style="endArrow=classic;html=1;rounded=0;entryX=0.5;entryY=0;entryDx=0;entryDy=0;exitX=0.5;exitY=1;exitDx=0;exitDy=0;" edge="1" parent="1" source="rC166UHZ5wfG2yP7bwpj-30" target="rC166UHZ5wfG2yP7bwpj-34">
          <mxGeometry width="50" height="50" relative="1" as="geometry">
            <mxPoint x="580" y="400" as="sourcePoint" />
            <mxPoint x="630" y="350" as="targetPoint" />
          </mxGeometry>
        </mxCell>
        <mxCell id="rC166UHZ5wfG2yP7bwpj-36" value="TokenInvalidException" style="rounded=1;whiteSpace=wrap;html=1;fillColor=#f8cecc;strokeColor=#b85450;fontSize=18;" vertex="1" parent="1">
          <mxGeometry x="530" y="652" width="210" height="66" as="geometry" />
        </mxCell>
        <mxCell id="rC166UHZ5wfG2yP7bwpj-37" value="" style="endArrow=classic;html=1;rounded=0;exitX=0;exitY=0.5;exitDx=0;exitDy=0;entryX=1;entryY=0.5;entryDx=0;entryDy=0;fontSize=16;" edge="1" parent="1" source="rC166UHZ5wfG2yP7bwpj-34" target="rC166UHZ5wfG2yP7bwpj-36">
          <mxGeometry width="50" height="50" relative="1" as="geometry">
            <mxPoint x="580" y="400" as="sourcePoint" />
            <mxPoint x="630" y="350" as="targetPoint" />
          </mxGeometry>
        </mxCell>
        <mxCell id="rC166UHZ5wfG2yP7bwpj-72" value="token not valid" style="edgeLabel;html=1;align=center;verticalAlign=middle;resizable=0;points=[];fontSize=14;" vertex="1" connectable="0" parent="rC166UHZ5wfG2yP7bwpj-37">
          <mxGeometry x="0.2813" y="-1" relative="1" as="geometry">
            <mxPoint x="9" y="10" as="offset" />
          </mxGeometry>
        </mxCell>
        <mxCell id="rC166UHZ5wfG2yP7bwpj-38" value="" style="endArrow=classic;html=1;rounded=0;entryX=1;entryY=0.75;entryDx=0;entryDy=0;edgeStyle=orthogonalEdgeStyle;exitX=0.5;exitY=0;exitDx=0;exitDy=0;" edge="1" parent="1" source="rC166UHZ5wfG2yP7bwpj-36" target="rC166UHZ5wfG2yP7bwpj-3">
          <mxGeometry width="50" height="50" relative="1" as="geometry">
            <mxPoint x="650" y="520" as="sourcePoint" />
            <mxPoint x="630" y="350" as="targetPoint" />
          </mxGeometry>
        </mxCell>
        <mxCell id="rC166UHZ5wfG2yP7bwpj-39" value="&lt;font style=&quot;font-size: 14px;&quot;&gt;UserDetailsService&lt;br&gt;---------------------------------------------------------------&lt;/font&gt;&lt;div style=&quot;font-size: 14px;&quot;&gt;&lt;font style=&quot;font-size: 14px;&quot;&gt;Find user by email&lt;/font&gt;&lt;/div&gt;" style="rounded=1;whiteSpace=wrap;html=1;" vertex="1" parent="1">
          <mxGeometry x="869" y="770" width="300" height="80" as="geometry" />
        </mxCell>
        <mxCell id="rC166UHZ5wfG2yP7bwpj-40" value="" style="endArrow=classic;html=1;rounded=0;entryX=0.5;entryY=0;entryDx=0;entryDy=0;" edge="1" parent="1" source="rC166UHZ5wfG2yP7bwpj-34" target="rC166UHZ5wfG2yP7bwpj-39">
          <mxGeometry width="50" height="50" relative="1" as="geometry">
            <mxPoint x="580" y="830" as="sourcePoint" />
            <mxPoint x="630" y="780" as="targetPoint" />
          </mxGeometry>
        </mxCell>
        <mxCell id="rC166UHZ5wfG2yP7bwpj-75" value="token valid" style="edgeLabel;html=1;align=center;verticalAlign=middle;resizable=0;points=[];fontSize=15;" vertex="1" connectable="0" parent="rC166UHZ5wfG2yP7bwpj-40">
          <mxGeometry x="-0.5571" y="6" relative="1" as="geometry">
            <mxPoint x="-10" y="3" as="offset" />
          </mxGeometry>
        </mxCell>
        <mxCell id="rC166UHZ5wfG2yP7bwpj-41" value="" style="image;aspect=fixed;html=1;points=[];align=center;fontSize=12;image=img/lib/azure2/databases/Azure_Database_PostgreSQL_Server.svg;" vertex="1" parent="1">
          <mxGeometry x="693" y="779" width="48" height="64" as="geometry" />
        </mxCell>
        <mxCell id="rC166UHZ5wfG2yP7bwpj-42" value="" style="endArrow=classic;html=1;rounded=0;exitX=0;exitY=0.5;exitDx=0;exitDy=0;" edge="1" parent="1" source="rC166UHZ5wfG2yP7bwpj-39" target="rC166UHZ5wfG2yP7bwpj-41">
          <mxGeometry width="50" height="50" relative="1" as="geometry">
            <mxPoint x="580" y="830" as="sourcePoint" />
            <mxPoint x="630" y="780" as="targetPoint" />
          </mxGeometry>
        </mxCell>
        <mxCell id="rC166UHZ5wfG2yP7bwpj-43" value="" style="rhombus;whiteSpace=wrap;html=1;" vertex="1" parent="1">
          <mxGeometry x="978" y="900" width="80" height="80" as="geometry" />
        </mxCell>
        <mxCell id="rC166UHZ5wfG2yP7bwpj-45" value="" style="endArrow=classic;html=1;rounded=0;entryX=0.5;entryY=0;entryDx=0;entryDy=0;exitX=0.5;exitY=1;exitDx=0;exitDy=0;" edge="1" parent="1" source="rC166UHZ5wfG2yP7bwpj-39" target="rC166UHZ5wfG2yP7bwpj-43">
          <mxGeometry width="50" height="50" relative="1" as="geometry">
            <mxPoint x="580" y="830" as="sourcePoint" />
            <mxPoint x="630" y="780" as="targetPoint" />
          </mxGeometry>
        </mxCell>
        <mxCell id="rC166UHZ5wfG2yP7bwpj-46" value="UserNotFound" style="rounded=1;whiteSpace=wrap;html=1;fillColor=#f8cecc;strokeColor=#b85450;fontSize=18;" vertex="1" parent="1">
          <mxGeometry x="530" y="907" width="210" height="66" as="geometry" />
        </mxCell>
        <mxCell id="rC166UHZ5wfG2yP7bwpj-47" value="" style="endArrow=classic;html=1;rounded=0;entryX=1;entryY=0.5;entryDx=0;entryDy=0;exitX=0;exitY=0.5;exitDx=0;exitDy=0;" edge="1" parent="1" source="rC166UHZ5wfG2yP7bwpj-43" target="rC166UHZ5wfG2yP7bwpj-46">
          <mxGeometry width="50" height="50" relative="1" as="geometry">
            <mxPoint x="970" y="920" as="sourcePoint" />
            <mxPoint x="630" y="780" as="targetPoint" />
          </mxGeometry>
        </mxCell>
        <mxCell id="rC166UHZ5wfG2yP7bwpj-73" value="user not found" style="edgeLabel;html=1;align=center;verticalAlign=middle;resizable=0;points=[];fontSize=14;" vertex="1" connectable="0" parent="rC166UHZ5wfG2yP7bwpj-47">
          <mxGeometry x="0.1152" y="2" relative="1" as="geometry">
            <mxPoint y="-13" as="offset" />
          </mxGeometry>
        </mxCell>
        <mxCell id="rC166UHZ5wfG2yP7bwpj-48" value="" style="endArrow=classic;html=1;rounded=0;exitX=0;exitY=0.5;exitDx=0;exitDy=0;entryX=0.5;entryY=1;entryDx=0;entryDy=0;edgeStyle=orthogonalEdgeStyle;" edge="1" parent="1" source="rC166UHZ5wfG2yP7bwpj-46" target="rC166UHZ5wfG2yP7bwpj-3">
          <mxGeometry width="50" height="50" relative="1" as="geometry">
            <mxPoint x="580" y="830" as="sourcePoint" />
            <mxPoint x="630" y="780" as="targetPoint" />
          </mxGeometry>
        </mxCell>
        <mxCell id="rC166UHZ5wfG2yP7bwpj-50" value="" style="rounded=1;whiteSpace=wrap;html=1;" vertex="1" parent="1">
          <mxGeometry x="1250" y="841" width="470" height="210" as="geometry" />
        </mxCell>
        <mxCell id="rC166UHZ5wfG2yP7bwpj-51" value="" style="rounded=1;whiteSpace=wrap;html=1;" vertex="1" parent="1">
          <mxGeometry x="1270" y="891" width="420" height="130" as="geometry" />
        </mxCell>
        <mxCell id="rC166UHZ5wfG2yP7bwpj-52" value="" style="rounded=0;whiteSpace=wrap;html=1;" vertex="1" parent="1">
          <mxGeometry x="1290" y="931" width="120" height="60" as="geometry" />
        </mxCell>
        <mxCell id="rC166UHZ5wfG2yP7bwpj-53" value="" style="rounded=0;whiteSpace=wrap;html=1;" vertex="1" parent="1">
          <mxGeometry x="1428" y="931" width="120" height="60" as="geometry" />
        </mxCell>
        <mxCell id="rC166UHZ5wfG2yP7bwpj-55" value="" style="rounded=0;whiteSpace=wrap;html=1;" vertex="1" parent="1">
          <mxGeometry x="1560" y="931" width="120" height="60" as="geometry" />
        </mxCell>
        <mxCell id="rC166UHZ5wfG2yP7bwpj-56" value="SecurityContextHolder" style="text;html=1;align=center;verticalAlign=middle;resizable=0;points=[];autosize=1;strokeColor=none;fillColor=none;fontSize=21;" vertex="1" parent="1">
          <mxGeometry x="1360" y="802" width="230" height="40" as="geometry" />
        </mxCell>
        <mxCell id="rC166UHZ5wfG2yP7bwpj-59" value="SecurityContext" style="text;html=1;align=center;verticalAlign=middle;resizable=0;points=[];autosize=1;strokeColor=none;fillColor=none;fontSize=21;" vertex="1" parent="1">
          <mxGeometry x="1399" y="839" width="170" height="40" as="geometry" />
        </mxCell>
        <mxCell id="rC166UHZ5wfG2yP7bwpj-62" value="Authentication" style="text;html=1;align=center;verticalAlign=middle;resizable=0;points=[];autosize=1;strokeColor=none;fillColor=none;fontSize=21;" vertex="1" parent="1">
          <mxGeometry x="1404" y="888" width="160" height="40" as="geometry" />
        </mxCell>
        <mxCell id="rC166UHZ5wfG2yP7bwpj-63" value="Principal&lt;span style=&quot;color: rgba(0, 0, 0, 0); font-family: monospace; font-size: 0px; text-align: start;&quot;&gt;%3CmxGraphModel%3E%3Croot%3E%3CmxCell%20id%3D%220%22%2F%3E%3CmxCell%20id%3D%221%22%20parent%3D%220%22%2F%3E%3CmxCell%20id%3D%222%22%20value%3D%22Authentication%22%20style%3D%22text%3Bhtml%3D1%3Balign%3Dcenter%3BverticalAlign%3Dmiddle%3Bresizable%3D0%3Bpoints%3D%5B%5D%3Bautosize%3D1%3BstrokeColor%3Dnone%3BfillColor%3Dnone%3BfontSize%3D21%3B%22%20vertex%3D%221%22%20parent%3D%221%22%3E%3CmxGeometry%20x%3D%221404%22%20y%3D%22877%22%20width%3D%22160%22%20height%3D%2240%22%20as%3D%22geometry%22%2F%3E%3C%2FmxCell%3E%3C%2Froot%3E%3C%2FmxGraphModel%3E&lt;/span&gt;" style="text;html=1;align=center;verticalAlign=middle;resizable=0;points=[];autosize=1;strokeColor=none;fillColor=none;fontSize=15;" vertex="1" parent="1">
          <mxGeometry x="1313" y="946" width="80" height="30" as="geometry" />
        </mxCell>
        <mxCell id="rC166UHZ5wfG2yP7bwpj-64" value="Credentials" style="text;html=1;align=center;verticalAlign=middle;resizable=0;points=[];autosize=1;strokeColor=none;fillColor=none;fontSize=15;" vertex="1" parent="1">
          <mxGeometry x="1438" y="946" width="100" height="30" as="geometry" />
        </mxCell>
        <mxCell id="rC166UHZ5wfG2yP7bwpj-65" value="Authorities" style="text;html=1;align=center;verticalAlign=middle;resizable=0;points=[];autosize=1;strokeColor=none;fillColor=none;fontSize=15;" vertex="1" parent="1">
          <mxGeometry x="1575" y="946" width="90" height="30" as="geometry" />
        </mxCell>
        <mxCell id="rC166UHZ5wfG2yP7bwpj-66" value="DispatcherServlet" style="rounded=1;whiteSpace=wrap;html=1;" vertex="1" parent="1">
          <mxGeometry x="1349" y="610" width="280" height="90" as="geometry" />
        </mxCell>
        <mxCell id="rC166UHZ5wfG2yP7bwpj-67" value="" style="endArrow=classic;html=1;rounded=0;entryX=0.5;entryY=1;entryDx=0;entryDy=0;exitX=0.5;exitY=0;exitDx=0;exitDy=0;" edge="1" parent="1" source="rC166UHZ5wfG2yP7bwpj-57" target="rC166UHZ5wfG2yP7bwpj-66">
          <mxGeometry width="50" height="50" relative="1" as="geometry">
            <mxPoint x="890" y="830" as="sourcePoint" />
            <mxPoint x="940" y="780" as="targetPoint" />
          </mxGeometry>
        </mxCell>
        <mxCell id="rC166UHZ5wfG2yP7bwpj-69" value="" style="endArrow=classic;html=1;rounded=0;entryX=0.5;entryY=1;entryDx=0;entryDy=0;exitX=0.5;exitY=0;exitDx=0;exitDy=0;edgeStyle=orthogonalEdgeStyle;" edge="1" parent="1" source="rC166UHZ5wfG2yP7bwpj-66" target="rC166UHZ5wfG2yP7bwpj-9">
          <mxGeometry width="50" height="50" relative="1" as="geometry">
            <mxPoint x="890" y="830" as="sourcePoint" />
            <mxPoint x="940" y="780" as="targetPoint" />
          </mxGeometry>
        </mxCell>
        <mxCell id="rC166UHZ5wfG2yP7bwpj-70" value="FilterChain" style="text;html=1;align=center;verticalAlign=middle;resizable=0;points=[];autosize=1;strokeColor=none;fillColor=none;fontSize=18;" vertex="1" parent="1">
          <mxGeometry x="675" y="195" width="110" height="40" as="geometry" />
        </mxCell>
        <mxCell id="rC166UHZ5wfG2yP7bwpj-74" value="" style="endArrow=classic;html=1;rounded=0;entryX=0;entryY=0.5;entryDx=0;entryDy=0;" edge="1" parent="1" target="rC166UHZ5wfG2yP7bwpj-57">
          <mxGeometry width="50" height="50" relative="1" as="geometry">
            <mxPoint x="1060" y="940" as="sourcePoint" />
            <mxPoint x="940" y="900" as="targetPoint" />
          </mxGeometry>
        </mxCell>
        <mxCell id="rC166UHZ5wfG2yP7bwpj-76" value="user found" style="edgeLabel;html=1;align=center;verticalAlign=middle;resizable=0;points=[];fontSize=15;" vertex="1" connectable="0" parent="rC166UHZ5wfG2yP7bwpj-74">
          <mxGeometry x="0.0412" y="7" relative="1" as="geometry">
            <mxPoint y="-5" as="offset" />
          </mxGeometry>
        </mxCell>
      </root>
    </mxGraphModel>
  </diagram>
</mxfile>
